<svg width="72" height="88" viewBox="0 0 72 88" fill="none" xmlns="http://www.w3.org/2000/svg">
<path d="M11.0747 78.3893C11.2307 81.6307 15.0787 84.0053 20.5387 85.496C20.5907 85.5133 20.6427 85.5307 20.6947 85.548C22.9307 86.1547 25.4267 86.588 28.0613 86.8827C28.096 86.8827 28.1133 86.9 28.148 86.9C28.1653 86.9 28.1827 86.9 28.1827 86.9C30.7133 87.1773 33.348 87.3333 35.9827 87.3333C36 87.3333 36 87.3333 36.0173 87.3333C36.0347 87.3333 36.0347 87.3333 36.052 87.3333C38.6867 87.3333 41.3213 87.1773 43.852 86.9C43.8693 86.9 43.8693 86.9 43.8867 86.9C43.904 86.9 43.9387 86.8827 43.956 86.8827C46.5907 86.588 49.104 86.1373 51.34 85.5307C51.3747 85.5133 51.4267 85.5133 51.4613 85.496C56.9387 84.0053 60.7867 81.6307 60.9427 78.3893L65.9173 54.5733C66.108 53.6373 65.5187 52.7187 64.5827 52.528C63.6293 52.3373 62.728 52.9267 62.5373 53.8627L57.528 77.8173C57.5107 77.9387 57.4933 78.06 57.4933 78.164C57.4933 79.0307 55.9333 80.2787 52.9693 81.3707L59.868 36.1307C62.572 35.316 64.964 34.328 66.8707 33.2013L63.7853 47.9173C63.5947 48.8533 64.184 49.772 65.12 49.9627C65.2413 49.98 65.3627 49.9973 65.484 49.9973C66.2813 49.9973 67.0093 49.4427 67.1827 48.628L71.3947 28.4693C71.62 27.8627 71.7413 27.2387 71.7413 26.58C71.7413 23.512 69.7653 20.86 66.9747 19.8893C66.9747 19.8547 66.9747 19.82 66.9747 19.7853C66.9747 15.8507 63.716 12.696 59.816 12.7133C59.036 9.64533 56.2627 7.37467 52.952 7.37467C52.6573 7.37467 52.38 7.392 52.1027 7.42667C51.0627 4.77467 48.5147 2.95467 45.5507 2.95467C44.268 2.95467 43.0373 3.30133 41.98 3.92533C40.6973 1.94933 38.496 0.666668 36 0.666668C33.504 0.666668 31.3027 1.94933 30.0373 3.94267C28.9627 3.30133 27.7493 2.972 26.4667 2.972C23.4853 2.972 20.9373 4.792 19.9147 7.444C19.6373 7.40933 19.3427 7.392 19.0653 7.392C15.7547 7.392 12.9813 9.66267 12.2013 12.7307C12.1667 12.7307 12.1493 12.7307 12.1147 12.7307C8.21467 12.7307 5.04267 15.9027 5.04267 19.8027C5.04267 19.8373 5.04267 19.872 5.04267 19.9067C2.26933 20.8773 0.276001 23.5293 0.276001 26.5973C0.276001 27.2387 0.397334 27.8627 0.622667 28.4693L11.0747 78.3893ZM14.5413 78.1813C14.5413 78.06 14.524 77.9387 14.5067 77.8173L5.164 33.2013C7.07067 34.328 9.46267 35.316 12.1667 36.1307L19.0653 81.3707C16.1013 80.296 14.5413 79.048 14.5413 78.1813ZM45.8107 38.748L42.24 83.572C40.8187 83.6933 39.328 83.78 37.716 83.832V39.216C40.4373 39.164 43.1587 39.008 45.8107 38.748ZM34.2667 83.832C32.672 83.7973 31.164 83.7107 29.7427 83.572L26.172 38.748C28.824 39.008 31.5453 39.164 34.2667 39.1987V83.832ZM22.6707 38.3493L26.2413 83.156C24.976 82.9653 23.7973 82.74 22.7227 82.48L15.8067 37.1187C17.9733 37.604 20.2787 38.02 22.6707 38.3493ZM49.2773 82.48C48.2027 82.74 47.0413 82.9653 45.7587 83.156L49.3293 38.3493C51.7213 38.02 54.0267 37.6213 56.1933 37.1187L49.2773 82.48ZM7.12267 22.992C7.64267 22.9573 8.128 22.68 8.42267 22.264C8.71733 21.848 8.82133 21.2933 8.66533 20.7907C8.56133 20.4093 8.50933 20.08 8.50933 19.8027C8.50933 17.8093 10.1213 16.1973 12.1147 16.1973C12.444 16.1973 12.7907 16.2667 13.2067 16.388C13.744 16.5613 14.3507 16.4573 14.8013 16.1107C15.252 15.764 15.512 15.2093 15.4773 14.6373C15.4773 14.5507 15.46 14.4467 15.4427 14.4467C15.4427 12.4533 17.0547 10.8413 19.048 10.8413C19.5333 10.8413 20.0187 10.9453 20.4693 11.136C20.972 11.3613 21.5613 11.3267 22.0467 11.032C22.532 10.7373 22.844 10.252 22.896 9.69733C23.0693 7.82533 24.5947 6.42133 26.4667 6.42133C27.6107 6.42133 28.668 6.95867 29.3613 7.89467C29.7773 8.44933 30.488 8.70933 31.164 8.55333C31.84 8.39733 32.36 7.84267 32.464 7.14933C32.7413 5.39867 34.232 4.13333 36 4.13333C37.768 4.13333 39.2587 5.39867 39.536 7.16667C39.6573 7.86 40.16 8.41467 40.836 8.57067C41.512 8.72667 42.2227 8.484 42.6387 7.912C43.332 6.976 44.3893 6.43867 45.5333 6.43867C47.388 6.43867 48.9307 7.84267 49.104 9.71467C49.156 10.2693 49.468 10.772 49.9533 11.0493C50.4387 11.3267 51.0107 11.3613 51.5307 11.1533C51.9813 10.9627 52.4667 10.8587 52.952 10.8587C54.9453 10.8587 56.5573 12.4707 56.5573 14.3773C56.5573 14.4293 56.5227 14.6027 56.5227 14.6547C56.488 15.2267 56.748 15.7813 57.1987 16.128C57.6493 16.4747 58.2387 16.5787 58.7933 16.4053C59.2093 16.2667 59.556 16.2147 59.8853 16.2147C61.8787 16.2147 63.4907 17.8267 63.4907 19.82C63.4907 20.1147 63.4387 20.4267 63.3347 20.808C63.196 21.3107 63.2827 21.848 63.5773 22.2813C63.872 22.7147 64.3573 22.9747 64.8773 23.0093C66.7667 23.1307 68.24 24.7253 68.24 26.6147C68.24 30.4453 55.968 35.7667 35.9827 35.7667C15.9973 35.7667 3.72533 30.428 3.72533 26.6147C3.74267 24.708 5.216 23.1133 7.12267 22.992Z" fill="white"/>
</svg>
