<svg width="11" height="11" viewBox="0 0 11 11" fill="none" xmlns="http://www.w3.org/2000/svg">
<path d="M7.11747 3.59027L5.74584 0.616563C5.64904 0.406702 5.35077 0.406702 5.25397 0.616563L3.88234 3.59027C3.84289 3.6758 3.76183 3.73469 3.66829 3.74578L0.416276 4.13136C0.186774 4.15857 0.0946051 4.44223 0.264282 4.59915L2.66858 6.82258C2.73774 6.88653 2.7687 6.98181 2.75034 7.0742L2.11212 10.2862C2.06708 10.5129 2.30838 10.6882 2.51005 10.5753L5.36762 8.97576C5.44981 8.92976 5.55 8.92976 5.63219 8.97576L8.48977 10.5753C8.69143 10.6882 8.93274 10.5129 8.88769 10.2862L8.24947 7.0742C8.23112 6.98181 8.26208 6.88653 8.33123 6.82258L10.7355 4.59915C10.9052 4.44223 10.813 4.15857 10.5835 4.13136L7.33152 3.74578C7.23798 3.73469 7.15693 3.6758 7.11747 3.59027Z" fill="#F1DE30"/>
</svg>
