<svg width="18" height="18" viewBox="0 0 18 18" fill="none" xmlns="http://www.w3.org/2000/svg">
<path d="M2.25 6.75V5.25C2.25 4.83579 2.58579 4.5 3 4.5H15C15.4142 4.5 15.75 4.83579 15.75 5.25V6.75M2.25 11.25V12.75C2.25 13.1642 2.58579 13.5 3 13.5H15C15.4142 13.5 15.75 13.1642 15.75 12.75V11.25" stroke="white" stroke-width="2" stroke-linecap="round" stroke-linejoin="round"/>
<path d="M15.75 11.25C14.5074 11.25 13.5 10.2426 13.5 9C13.5 7.75736 14.5074 6.75 15.75 6.75" stroke="white" stroke-width="2" stroke-linecap="round" stroke-linejoin="round"/>
<path d="M2.25 6.75C3.49264 6.75 4.5 7.75736 4.5 9C4.5 10.2426 3.49264 11.25 2.25 11.25" stroke="white" stroke-width="2" stroke-linecap="round" stroke-linejoin="round"/>
<path d="M10.5 4.5V13.5" stroke="white" stroke-width="2" stroke-linecap="round" stroke-linejoin="round"/>
</svg>
